<svg width="24" height="24" viewBox="0 0 24 24" fill="none" xmlns="http://www.w3.org/2000/svg">
<path d="M6.08577 23.9151C4.65848 23.8502 3.88314 23.6127 3.36743 23.4115C2.6841 23.1455 2.19693 22.8288 1.68407 22.3166C1.17122 21.8045 0.853806 21.3173 0.589176 20.634C0.388029 20.1183 0.150504 19.3429 0.0855946 17.9157C0.0142658 16.3728 0 15.9099 0 12.0011C0 8.09225 0.0156923 7.63004 0.0848813 6.08577C0.14979 4.65848 0.388742 3.88457 0.588463 3.36743C0.854519 2.6841 1.17193 2.19693 1.68336 1.68336C2.1955 1.17122 2.68268 0.853092 3.36672 0.588463C3.88243 0.387315 4.65777 0.14979 6.08506 0.0848813C7.62861 0.0142658 8.09225 0 11.9996 0C15.9085 0 16.3707 0.0156923 17.9149 0.0848813C19.3422 0.14979 20.1161 0.388742 20.6333 0.588463C21.3166 0.853092 21.8038 1.17122 22.3166 1.68336C22.8295 2.1955 23.1455 2.68339 23.4115 3.36672C23.6127 3.88243 23.8502 4.65777 23.9151 6.08506C23.9857 7.62933 24 8.09154 24 12.0004C24 15.9077 23.9857 16.3714 23.9151 17.9157C23.8502 19.3429 23.6113 20.1183 23.4115 20.634C23.1455 21.3173 22.8288 21.8045 22.3166 22.3166C21.8045 22.8288 21.3166 23.1455 20.6333 23.4115C20.1176 23.6127 19.3422 23.8502 17.9149 23.9151C16.3721 23.9857 15.9085 24 11.9996 24C8.09225 24 7.62862 23.9864 6.08577 23.9151" fill="url(#paint0_radial)"/>
<path d="M6.08577 23.9151C4.65848 23.8502 3.88314 23.6127 3.36743 23.4115C2.6841 23.1455 2.19693 22.8288 1.68407 22.3166C1.17122 21.8045 0.853806 21.3173 0.589176 20.634C0.388029 20.1183 0.150504 19.3429 0.0855946 17.9157C0.0142658 16.3728 0 15.9099 0 12.0011C0 8.09225 0.0156923 7.63004 0.0848813 6.08577C0.14979 4.65848 0.388742 3.88457 0.588463 3.36743C0.854519 2.6841 1.17193 2.19693 1.68336 1.68336C2.1955 1.17122 2.68268 0.853092 3.36672 0.588463C3.88243 0.387315 4.65777 0.14979 6.08506 0.0848813C7.62861 0.0142658 8.09225 0 11.9996 0C15.9085 0 16.3707 0.0156923 17.9149 0.0848813C19.3422 0.14979 20.1161 0.388742 20.6333 0.588463C21.3166 0.853092 21.8038 1.17122 22.3166 1.68336C22.8295 2.1955 23.1455 2.68339 23.4115 3.36672C23.6127 3.88243 23.8502 4.65777 23.9151 6.08506C23.9857 7.62933 24 8.09154 24 12.0004C24 15.9077 23.9857 16.3714 23.9151 17.9157C23.8502 19.3429 23.6113 20.1183 23.4115 20.634C23.1455 21.3173 22.8288 21.8045 22.3166 22.3166C21.8045 22.8288 21.3166 23.1455 20.6333 23.4115C20.1176 23.6127 19.3422 23.8502 17.9149 23.9151C16.3721 23.9857 15.9085 24 11.9996 24C8.09225 24 7.62862 23.9864 6.08577 23.9151" fill="url(#paint1_radial)"/>
<path d="M9.0534 12.0512C9.0534 10.4098 10.3836 9.0789 12.025 9.0789C13.6663 9.0789 14.9972 10.4098 14.9972 12.0512C14.9972 13.6925 13.6663 15.0234 12.025 15.0234C10.3836 15.0234 9.0534 13.6925 9.0534 12.0512V12.0512ZM7.44664 12.0512C7.44664 14.5798 9.49635 16.6295 12.025 16.6295C14.5536 16.6295 16.6033 14.5798 16.6033 12.0512C16.6033 9.52256 14.5536 7.47286 12.025 7.47286C9.49635 7.47286 7.44672 9.52242 7.44672 12.0512H7.44664ZM15.7146 7.29133C15.7146 7.50294 15.7772 7.70982 15.8947 7.88582C16.0122 8.06182 16.1793 8.19902 16.3747 8.28008C16.5702 8.36114 16.7853 8.38241 16.9929 8.34121C17.2005 8.30001 17.3911 8.19818 17.5408 8.04861C17.6905 7.89904 17.7925 7.70844 17.8339 7.50091C17.8752 7.29338 17.8541 7.07824 17.7732 6.8827C17.6923 6.68717 17.5553 6.52001 17.3794 6.40238C17.2035 6.28474 16.9966 6.22191 16.785 6.22182H16.7846C16.5009 6.22195 16.2289 6.33466 16.0283 6.53519C15.8277 6.73572 15.7149 7.00768 15.7146 7.29133V7.29133ZM8.42285 19.3087C7.55357 19.2691 7.08108 19.1243 6.76709 19.002C6.35082 18.84 6.05381 18.6469 5.74153 18.3351C5.42925 18.0232 5.23595 17.7265 5.07461 17.3102C4.95221 16.9964 4.80741 16.5238 4.76789 15.6545C4.72467 14.7147 4.71604 14.4323 4.71604 12.0513C4.71604 9.67028 4.72538 9.38875 4.76789 8.44814C4.80748 7.57885 4.95335 7.10715 5.07461 6.79238C5.23666 6.37611 5.42968 6.07909 5.74153 5.76682C6.05338 5.45454 6.35011 5.26124 6.76709 5.09989C7.08094 4.97749 7.55357 4.8327 8.42285 4.79318C9.36268 4.74995 9.645 4.74132 12.025 4.74132C14.4049 4.74132 14.6875 4.75052 15.6281 4.79332C16.4974 4.83291 16.9691 4.97878 17.2839 5.10004C17.7002 5.26138 17.9972 5.45511 18.3094 5.76696C18.6217 6.07881 18.8143 6.37625 18.9764 6.79252C19.0988 7.10637 19.2436 7.57899 19.2831 8.44828C19.3263 9.38889 19.3349 9.67043 19.3349 12.0515C19.3349 14.4325 19.3263 14.714 19.2831 15.6546C19.2435 16.5239 19.098 16.9964 18.9764 17.3104C18.8143 17.7267 18.6213 18.0237 18.3094 18.3352C17.9976 18.6468 17.7002 18.8401 17.2839 19.0022C16.97 19.1246 16.4974 19.2693 15.6281 19.3089C14.6883 19.3521 14.406 19.3607 12.025 19.3607C9.64393 19.3607 9.36239 19.3521 8.42285 19.3089V19.3087ZM8.34902 3.18907C7.39985 3.23229 6.75126 3.3828 6.18484 3.6032C5.59859 3.83081 5.10164 4.13617 4.6054 4.63162C4.10917 5.12707 3.8046 5.62409 3.57699 6.21105C3.35658 6.77783 3.20608 7.42607 3.16285 8.37524C3.11891 9.32591 3.10886 9.62984 3.10886 12.0512C3.10886 14.4725 3.11891 14.7764 3.16285 15.7271C3.20608 16.6763 3.35658 17.3245 3.57699 17.8913C3.8046 18.4775 4.10924 18.9755 4.6054 19.4707C5.10157 19.9659 5.59787 20.2709 6.18484 20.4991C6.75233 20.7195 7.39985 20.87 8.34902 20.9133C9.30019 20.9565 9.60363 20.9673 12.025 20.9673C14.4463 20.9673 14.7502 20.9572 15.7009 20.9133C16.6501 20.87 17.2983 20.7195 17.8651 20.4991C18.4513 20.2709 18.9483 19.9662 19.4445 19.4707C19.9407 18.9753 20.2447 18.4775 20.4729 17.8913C20.6933 17.3245 20.8445 16.6763 20.8871 15.7271C20.9303 14.7757 20.9403 14.4725 20.9403 12.0512C20.9403 9.62984 20.9303 9.32591 20.8871 8.37524C20.8438 7.42599 20.6933 6.77747 20.4729 6.21105C20.2447 5.6248 19.9399 5.12785 19.4445 4.63162C18.949 4.13539 18.4513 3.83081 17.8658 3.6032C17.2983 3.3828 16.6501 3.23158 15.7016 3.18907C14.7508 3.14563 14.447 3.13507 12.026 3.13507C9.60505 3.13507 9.30055 3.14513 8.34938 3.18907" fill="white"/>
<defs>
<radialGradient id="paint0_radial" cx="0" cy="0" r="1" gradientUnits="userSpaceOnUse" gradientTransform="translate(1.55326 23.4742) scale(30.4711)">
<stop offset="0.09" stop-color="#FA8F21"/>
<stop offset="0.78" stop-color="#D82D7E"/>
</radialGradient>
<radialGradient id="paint1_radial" cx="0" cy="0" r="1" gradientUnits="userSpaceOnUse" gradientTransform="translate(16.624 22.7036) scale(26.8148)">
<stop offset="0.64" stop-color="#8C3AAA" stop-opacity="0"/>
<stop offset="1" stop-color="#8C3AAA"/>
</radialGradient>
</defs>
</svg>
