<svg width="24" height="24" viewBox="0 0 24 24" fill="none" xmlns="http://www.w3.org/2000/svg">
<path d="M0 1.71919C0 0.77025 0.794437 0 1.77375 0H22.2263C23.2059 0 24 0.77025 24 1.71919V22.2811C24 23.2303 23.2059 24 22.2263 24H1.77375C0.794531 24 0 23.2304 0 22.2814V1.71891V1.71919Z" fill="#006699"/>
<path d="M7.54093 19.9996V9.20407H3.92729V19.9996H7.5413H7.54093ZM5.73487 7.73037C6.99475 7.73037 7.77911 6.9014 7.77911 5.86542C7.75553 4.80584 6.99475 4 5.75882 4C4.52205 4 3.71429 4.80584 3.71429 5.86533C3.71429 6.90131 4.49837 7.73028 5.71119 7.73028H5.73458L5.73487 7.73037ZM9.54112 19.9996H13.1545V13.9715C13.1545 13.6493 13.1781 13.3263 13.2735 13.0961C13.5346 12.4512 14.1292 11.7836 15.1277 11.7836C16.4349 11.7836 16.9582 12.7735 16.9582 14.2249V19.9996H20.5714V13.8098C20.5714 10.494 18.789 8.95098 16.4115 8.95098C14.4624 8.95098 13.6063 10.0328 13.1307 10.7696H13.1548V9.20444H9.54131C9.58848 10.2172 9.54103 20 9.54103 20L9.54112 19.9996Z" fill="white"/>
</svg>
