<svg width="45" height="40" viewBox="0 0 45 40" fill="none" xmlns="http://www.w3.org/2000/svg">
<path d="M18.6758 0.0174943C18.4396 0.00874768 18.2008 0.00262388 17.9585 0.00262388C17.7023 0.00262388 17.4495 0.00874768 17.1993 0.0174943H16.9789V0.0262401C4.71705 0.569405 0 11.3032 0 20.3131C0 31.3872 6.66317 39.4551 16.3037 39.958V39.9711H16.7366C16.9116 39.9764 17.0865 39.979 17.2614 39.979C17.3883 39.979 17.5116 39.9738 17.6367 39.9711H22.01C22.1849 39.9764 22.3598 39.979 22.5348 39.979C22.6616 39.979 22.7849 39.9738 22.91 39.9711H27.0428C27.3769 39.9895 27.7145 40 28.0565 40C37.648 40 43.5205 33.4637 44.8264 24.2071H44.8465V23.3832H32.9878V24.1048H32.9782C32.059 30.7111 28.5953 36.0352 22.7281 38.0469C15.7421 35.5716 11.8622 28.2332 11.8622 20.3315C11.8622 13.7094 14.8972 4.69168 23.2537 1.9295C28.5131 3.73655 31.7537 8.11861 32.1228 12.3467H32.1289V13.1671H43.9893V12.3432H43.9841C43.8091 7.65154 38.8647 0.0655996 28.8385 0.0218665V0.0148691H23.9473C23.7112 0.00612247 23.4733 0 23.2301 0C22.987 0 22.7219 0.00612247 22.4709 0.0148691L18.6758 0.0174943ZM1.06883 20.3096C1.06883 12.6756 5.1019 1.85428 16.6737 1.11082C8.53319 4.13977 5.27158 12.8208 5.27158 20.3096C5.27158 29.3003 9.65713 36.2976 16.4594 38.8944C6.6413 38.4449 1.06883 29.7848 1.06883 20.3131V20.3096ZM43.7584 24.2071C42.5899 32.4036 37.4845 38.6119 28.7387 38.9215C34.6567 36.7183 38.3032 31.2569 39.3029 24.2132L43.7584 24.2071ZM34.0313 24.2071H38.2297C37.1504 31.7231 32.7561 37.5641 25.276 38.7046C24.9815 38.6551 24.6899 38.5968 24.4013 38.5297C29.7735 36.1226 33.0858 30.8747 34.0313 24.2106V24.2071ZM10.7933 20.3341C10.7933 28.8927 14.7739 35.6556 21.033 38.5183C20.6796 38.5953 20.319 38.6615 19.951 38.7169C11.2446 37.3655 6.34042 29.1962 6.34042 20.3131C6.34042 13.0045 10.0367 2.77705 20.5099 1.26301C20.8306 1.31141 21.1455 1.36972 21.4546 1.43794C13.8555 4.70218 10.7933 13.0771 10.7933 20.3341ZM33.1916 12.3458C33.0727 8.91017 30.3875 3.90799 25.0136 1.46156C25.3241 1.39683 25.6398 1.33998 25.9634 1.29187C32.7219 2.3887 36.9667 7.46961 37.3944 12.3458H33.1916ZM42.9135 12.3458H38.4632C38.3381 8.73437 35.3792 3.39369 29.442 1.10732C37.3716 1.4152 42.4324 7.00166 42.9135 12.3458Z" fill="white"/>
<path d="M15.6389 20.0026C15.6389 21.3445 16.0368 22.6563 16.7824 23.772C17.5279 24.8878 18.5875 25.7574 19.8273 26.2709C21.067 26.7845 22.4312 26.9188 23.7473 26.657C25.0634 26.3952 26.2723 25.749 27.2212 24.8002C28.1701 23.8513 28.8163 22.6424 29.078 21.3263C29.3398 20.0102 29.2055 18.646 28.692 17.4062C28.1784 16.1665 27.3088 15.1068 26.1931 14.3613C25.0773 13.6158 23.7656 13.2179 22.4237 13.2179C20.6242 13.2179 18.8985 13.9327 17.6261 15.2051C16.3537 16.4775 15.6389 18.2032 15.6389 20.0026ZM27.8938 19.9292C27.8938 21.031 27.5671 22.108 26.955 23.0241C26.3428 23.9402 25.4728 24.6542 24.4549 25.0758C23.437 25.4975 22.3169 25.6078 21.2363 25.3928C20.1557 25.1779 19.1631 24.6473 18.384 23.8683C17.6049 23.0892 17.0743 22.0966 16.8594 21.016C16.6445 19.9353 16.7548 18.8153 17.1764 17.7973C17.598 16.7794 18.3121 15.9094 19.2282 15.2973C20.1443 14.6852 21.2213 14.3585 22.3231 14.3585C23.0548 14.3581 23.7794 14.502 24.4556 14.7818C25.1317 15.0616 25.7461 15.4719 26.2636 15.9892C26.7811 16.5065 27.1915 17.1208 27.4716 17.7968C27.7516 18.4728 27.8957 19.1974 27.8955 19.9292H27.8938Z" fill="white"/>
</svg>
