<svg width="24" height="17" viewBox="0 0 24 17" fill="none" xmlns="http://www.w3.org/2000/svg">
<path d="M16.5 8.5L9.5 4.5V12.5L16.5 8.5Z" fill="white"/>
<path d="M12.5317 16.5534L7.60784 16.4635C6.0136 16.4322 4.41539 16.4947 2.85241 16.1701C0.474754 15.6852 0.306312 13.3074 0.130056 11.3128C-0.112807 8.50876 -0.0187875 5.6538 0.439526 2.87315C0.69826 1.31291 1.71648 0.381901 3.29112 0.280589C8.6067 -0.0870837 13.9576 -0.0435106 19.2614 0.128022C19.8216 0.143747 20.3856 0.229693 20.9379 0.327524C23.6643 0.80467 23.7308 3.49926 23.9076 5.7676C24.0838 8.05934 24.0094 10.3629 23.6725 12.639C23.4022 14.5236 22.8851 16.104 20.7028 16.2565C17.9686 16.456 15.2971 16.6167 12.5552 16.5655C12.5553 16.5534 12.5395 16.5534 12.5317 16.5534ZM9.63695 11.7822C11.6974 10.601 13.7186 9.43953 15.7673 8.26629C13.703 7.08512 11.6857 5.92365 9.63695 4.75041V11.7822Z" fill="#FF0000"/>
</svg>
